<?xml version="1.0" standalone="no"?>
<!DOCTYPE svg PUBLIC "-//W3C//DTD SVG 20010904//EN"
 "http://www.w3.org/TR/2001/REC-SVG-20010904/DTD/svg10.dtd">
<svg version="1.0" xmlns="http://www.w3.org/2000/svg"
 width="512.000000pt" height="512.000000pt" viewBox="0 0 512.000000 512.000000"
 preserveAspectRatio="xMidYMid meet">
<metadata>
Created by potrace 1.11, written by Peter Selinger 2001-2013
</metadata>
<g transform="translate(0.000000,512.000000) scale(0.100000,-0.100000)"
fill="#000000" stroke="none">
<path d="M0 2560 l0 -2560 2560 0 2560 0 0 2560 0 2560 -2560 0 -2560 0 0
-2560z m3119 898 l449 -3 -153 -315 -153 -315 -296 -3 -297 -2 3 -528 c4 -600
4 -601 82 -678 56 -57 160 -83 329 -84 l77 0 0 -330 c0 -301 -2 -331 -17 -337
-29 -11 -413 16 -513 36 -193 40 -321 101 -426 206 -82 81 -131 163 -173 290
-62 188 -65 223 -69 852 l-3 573 -222 2 -222 3 -3 317 -2 318 220 2 221 3 0
295 c-1 162 2 300 6 306 5 6 166 97 358 203 l350 191 3 -500 2 -500 449 -2z"/>
</g>
</svg>
